<svg width="64" height="58" viewBox="0 0 64 58" fill="none" xmlns="http://www.w3.org/2000/svg">
<path d="M4.44444 13.6944H59.5555V44.3056H4.44444V13.6944Z" fill="#1E50A0"/>
<path d="M4.44444 13.6944H59.5555V44.3056H4.44444V13.6944Z" fill="white"/>
<path d="M4.44444 33.8333H59.5555V44.3056H4.44444V33.8333ZM4.44444 13.6944H59.5555V24.1667H4.44444V13.6944Z" fill="#61B2E4"/>
<path d="M32 27.3059L33.0987 25.7778L33.0453 27.6298L34.8764 27.0087L33.6907 28.4764L35.5556 29L33.6907 29.5236L34.8764 30.9913L33.0453 30.3703L33.0987 32.2222L32 30.6941L30.9013 32.2222L30.9547 30.3703L29.1236 30.9913L30.3093 29.5236L28.4444 29L30.3093 28.4764L29.1236 27.0087L30.9547 27.6298L30.9013 25.7778L32 27.3059Z" fill="#F1B31C" stroke="#F1B31C" stroke-width="0.416667" stroke-linecap="round" stroke-linejoin="round"/>
<path d="M4.44444 13.6944H59.5556V44.3056H4.44444V13.6944Z" stroke="black" stroke-width="0.833333" stroke-linecap="round" stroke-linejoin="round"/>
</svg>
