<svg width="30" height="30" viewBox="0 0 30 30" fill="none" xmlns="http://www.w3.org/2000/svg">
<path d="M26.375 11.0938L15.875 21.625C15.75 21.75 15.6146 21.8383 15.4688 21.89C15.3229 21.9425 15.1667 21.9688 15 21.9688C14.8333 21.9688 14.6771 21.9425 14.5312 21.89C14.3854 21.8383 14.25 21.75 14.125 21.625L3.59375 11.0938C3.30208 10.8021 3.15625 10.4375 3.15625 10C3.15625 9.5625 3.3125 9.1875 3.625 8.875C3.9375 8.5625 4.30208 8.40625 4.71875 8.40625C5.13542 8.40625 5.5 8.5625 5.8125 8.875L15 18.0625L24.1875 8.875C24.4792 8.58333 24.8383 8.4375 25.265 8.4375C25.6925 8.4375 26.0625 8.59375 26.375 8.90625C26.6875 9.21875 26.8438 9.58333 26.8438 10C26.8438 10.4167 26.6875 10.7813 26.375 11.0938Z" fill="black"/>
</svg>
