<svg width="100" height="86" viewBox="0 0 100 86" fill="none" xmlns="http://www.w3.org/2000/svg">
<rect width="100" height="86" rx="43" fill="#6CACE4"/>
<path d="M59.3053 48.1887H57.1372L56.3688 47.4477C59.1513 44.2203 60.6806 40.1 60.6775 35.8388C60.6775 32.3106 59.6313 28.8617 57.6712 25.9281C55.711 22.9945 52.925 20.7081 49.6654 19.3579C46.4058 18.0077 42.819 17.6545 39.3586 18.3428C35.8982 19.0311 32.7197 20.7301 30.2249 23.2249C27.7301 25.7197 26.0311 28.8982 25.3428 32.3586C24.6545 35.819 25.0077 39.4058 26.3579 42.6654C27.7081 45.925 29.9945 48.711 32.9281 50.6712C35.8617 52.6313 39.3106 53.6775 42.8388 53.6775C47.2573 53.6775 51.319 52.0583 54.4477 49.3688L55.1887 50.1372V52.3053L68.9108 66L73 61.9108L59.3053 48.1887ZM42.8388 48.1887C36.0052 48.1887 30.4889 42.6724 30.4889 35.8388C30.4889 29.0052 36.0052 23.4889 42.8388 23.4889C49.6724 23.4889 55.1887 29.0052 55.1887 35.8388C55.1887 42.6724 49.6724 48.1887 42.8388 48.1887Z" fill="black"/>
</svg>
